<?xml version="1.0" encoding="UTF-8" standalone="no"?><!DOCTYPE svg PUBLIC "-//W3C//DTD SVG 1.1//EN" "http://www.w3.org/Graphics/SVG/1.1/DTD/svg11.dtd"><svg width="100%" height="100%" viewBox="0 0 1147 621" version="1.1" xmlns="http://www.w3.org/2000/svg" xmlns:xlink="http://www.w3.org/1999/xlink" xml:space="preserve" xmlns:serif="http://www.serif.com/" style="fill-rule:evenodd;clip-rule:evenodd;stroke-linejoin:round;stroke-miterlimit:2;"><g id="Cloud"><g><path d="M902.336,534.799c-196.672,-70.215 -76.943,-468.104 -393.343,-468.104c-129.177,0 -234.052,104.875 -234.052,234.052c0,129.177 104.875,234.052 234.052,234.052l393.343,0Z" style="fill:#efefef;"/><path d="M878.101,221.665c21.004,0 41.924,4.205 61.271,12.384c63.092,26.67 102.261,93.092 95.389,161.181c-1.568,15.53 -5.493,30.804 -11.57,45.18c-7.888,18.66 -19.439,35.735 -33.761,50.057c-14.323,14.323 -31.397,25.873 -50.058,33.762c-19.347,8.178 -40.267,12.383 -61.271,12.383c-21.004,0 -41.923,-4.205 -61.271,-12.383c-18.66,-7.889 -35.735,-19.439 -50.058,-33.762c-14.322,-14.322 -25.873,-31.397 -33.761,-50.057c-6.077,-14.376 -10.002,-29.65 -11.57,-45.18c-6.872,-68.089 32.297,-134.511 95.389,-161.181c19.348,-8.179 40.267,-12.384 61.271,-12.384Z" style="fill:#f1f1f1;"/><path d="M812.316,236.294c4.926,1.135 9.812,2.458 14.631,3.981c5.159,1.63 10.273,3.423 15.28,5.471c5.138,2.1 10.146,4.512 15.128,6.96c17.799,8.746 36.495,23.215 42.961,42.723c3.12,9.409 2.823,19.517 0.86,29.131c-5.776,28.286 -28.64,51.151 -56.927,56.926c-7.26,1.482 -14.953,2.092 -22.296,0.811c-13.691,-2.389 -25.829,-10.685 -35.577,-20.239c-13.018,-12.759 -23.118,-28.974 -28.854,-46.274c-3.469,-10.463 -5.433,-21.707 -4.091,-32.734c0.189,-1.559 1.769,-3.919 2.641,-4.948c5.075,-5.99 8.989,-9.184 14.958,-14.622c8.927,-8.133 19.149,-15.452 30.037,-21.682c1.53,-0.876 8.385,-4.423 10.943,-5.612c0.497,-0.231 -0.228,-0.015 0.306,0.108Z" style="fill:#fff;"/><path d="M848.44,534.799c-196.671,-70.215 -76.943,-468.104 -393.342,-468.104c-129.178,0 -234.053,104.875 -234.053,234.052c0,129.177 104.875,234.052 234.053,234.052l393.342,0Z" style="fill:#fff;"/><path d="M668.659,534.799c-156.976,-58.954 -61.413,-393.031 -313.952,-393.031c-108.46,0 -196.516,88.055 -196.516,196.515c0,108.461 88.056,196.516 196.516,196.516l313.952,0Z" style="fill:#f4f4f4;"/><path d="M625.617,534.799c-156.976,-58.954 -61.413,-393.031 -313.952,-393.031c-108.46,0 -196.516,88.055 -196.516,196.515c0,108.461 88.056,196.516 196.516,196.516l313.952,0Z" style="fill:#fff;"/><path d="M476.712,534.799c-125.222,-45.764 -48.99,-305.093 -250.443,-305.093c-84.193,0 -152.547,68.354 -152.547,152.547c0,84.192 68.354,152.546 152.547,152.546l250.443,0Z" style="fill:#f5f5f5;"/><path d="M451.347,534.799c-125.221,-45.764 -48.989,-305.093 -250.443,-305.093c-84.192,0 -152.546,68.354 -152.546,152.547c0,84.192 68.354,152.546 152.546,152.546l250.443,0Z" style="fill:#fff;"/></g></g></svg>